<?xml version="1.0" standalone="no"?>
<!DOCTYPE svg PUBLIC "-//W3C//DTD SVG 1.1//EN" "http://www.w3.org/Graphics/SVG/1.1/DTD/svg11.dtd" >
<svg xmlns="http://www.w3.org/2000/svg">
<metadata>Generated by IcoMoon</metadata>
<defs>
<font id="email" horiz-adv-x="1024">
<font-face units-per-em="1024" ascent="960" descent="-64" />
<missing-glyph horiz-adv-x="1024" />
<glyph unicode="&#x20;" horiz-adv-x="512" d="" />
<glyph unicode="&#xe900;" glyph-name="biaoge" d="M402.286 265.143v-213.333h235.661v213.333h-235.661zM402.286 338.286h235.661v219.429h-235.661v-219.429zM950.857 265.143h-239.768v-213.333h239.768v213.333zM950.857 338.286v219.429h-239.768v-219.429h239.768zM73.143 265.143v-213.333h256v213.333h-256zM73.143 338.286h256v219.429h-256v-219.429zM637.946 844.19h-235.661v-213.333h235.661v213.333zM711.089 844.19v-213.333h239.768v213.333h-239.768zM329.143 844.19h-256v-213.333h256v213.333zM0 923.429h1024v-950.857h-1024v950.857z" />
<glyph unicode="&#xe901;" glyph-name="code" d="M1014.81 469.333l-225.32 213.333c-12.875 12.19-32.832 12.19-45.708 0s-12.875-31.086 0-43.276l202.788-191.39-202.788-192c-12.875-12.19-12.875-31.086 0-43.276 5.691-5.611 13.682-9.097 22.532-9.097s16.841 3.487 22.522 9.088l225.33 213.343c12.875 12.19 12.875 31.695 0.644 43.276v0zM281.554 682.667c-12.875 12.19-32.832 12.19-45.708 0l-225.32-213.333c-12.875-12.19-12.875-31.086 0-43.276l225.32-213.333c6.438-5.486 14.807-8.533 23.176-8.533s16.738 3.048 22.532 9.143c12.875 12.19 12.875 31.086 0 43.276l-202.788 191.39 202.788 192c12.232 11.581 12.232 31.086 0 42.667v0zM617.603 812.495c-2.62 0.745-5.631 1.174-8.748 1.174-14.648 0-26.959-9.472-30.474-22.3l-193.18-670.683c-4.506-16.457 5.15-32.914 22.532-37.181 2.575-0.61 5.794-1.219 8.369-1.219 14.163 0 27.038 9.143 30.901 22.552l193.132 670.476c0.719 2.392 1.133 5.14 1.133 7.979 0 13.913-9.926 25.631-23.44 29.151l-0.224 0.050z" />
<glyph unicode="&#xe902;" glyph-name="center" d="M0 923.429h1024v-73.143h-1024v73.143zM219.429 777.143h585.143v-73.143h-585.143v73.143zM0 630.857h1024v-73.143h-1024v73.143zM219.429 192h585.143v-73.143h-585.143v73.143zM219.429 484.571h585.143v-73.143h-585.143v73.143zM0 338.286h1024v-73.143h-1024v73.143zM0 45.714h1024v-73.143h-1024v73.143z" />
<glyph unicode="&#xe903;" glyph-name="lianjie" d="M837.662 558.241l-98.96 0.224c-14.334 0-26.327 24.126-26.327 38.33 0 13.98 11.42 33.056 25.754 33.056l98.96-0.224c51.372-0.112 97.928-20.578 131.641-53.459 33.828-32.993 54.812-78.399 54.812-128.503 0.115-48.65-19.15-94.169-54.353-128.503s-81.874-53.124-131.641-53.012l-252.617 0.447c-100.451 0.112-204.341 61.623-204.571 164.18 0 13.98 21.628 24.246 35.962 24.246s34.228-10.154 34.228-24.246c0.115-70.906 59.502-93.24 134.495-93.352l252.617-0.447c35.777-0.112 61.464 4.301 86.691 29.018s27.964 46.663 27.964 81.669c-0.229 72.248-40.579 110.465-114.655 110.577zM187.141 265.255c-102.629 0.224-186.224 81.754-186.453 181.962-0.115 48.65 19.265 94.169 54.353 128.391s81.874 53.124 131.641 53.012l252.617-0.447c59.399-0.112 119.944-21.585 159.62-60.281 27.406-26.841 44.836-61.959 44.951-103.899 0.115-13.98-19.206-27.203-33.54-27.203s-37.455 13.111-37.455 27.203c-0.229 70.906-58.696 92.819-133.69 92.931l-233.569 0.447c-35.777 0.112-71.586-2.418-96.928-27.135s-37.006-47.902-36.891-82.908c0.115-72.248 59.743-109.882 133.819-109.994l79.912-0.112c14.334 0 29.004-21.989 29.004-35.969 0-14.092-14.097-36.112-28.43-36.112l-98.96 0.112z" />
<glyph unicode="&#xe904;" glyph-name="lianbianduiqi" d="M0 923.429h1024v-73.143h-1024v73.143zM0 777.143h1024v-73.143h-1024v73.143zM0 630.857h1024v-73.143h-1024v73.143zM0 192h1024v-73.143h-1024v73.143zM0 484.571h1024v-73.143h-1024v73.143zM0 338.286h1024v-73.143h-1024v73.143zM0 45.714h1024v-73.143h-1024v73.143z" />
<glyph unicode="&#xe905;" glyph-name="clean" d="M686.349 448h-344.708l-213.068-426.667h345.344l212.432 426.667zM480.699 921.108c10.481 21.479 38.892 38.892 61.885 38.892h438.508c23.697 0 34.021-17.773 23.462-38.892l-473.108-946.217c-10.74-21.479-38.892-38.892-61.345-38.892h-428.202c-23.14 0-33.226 17.773-22.921 38.892l461.722 946.217z" />
<glyph unicode="&#xe906;" glyph-name="youduiqi" d="M0 923.429h1024v-73.143h-1024v73.143zM438.857 777.143h585.143v-73.143h-585.143v73.143zM0 630.857h1024v-73.143h-1024v73.143zM438.857 192h585.143v-73.143h-585.143v73.143zM438.857 484.571h585.143v-73.143h-585.143v73.143zM0 338.286h1024v-73.143h-1024v73.143zM0 45.714h1024v-73.143h-1024v73.143z" />
<glyph unicode="&#xe907;" glyph-name="A" horiz-adv-x="931" d="M0.519 27.45l357.907 931.824h132.879l381.433-931.824h-140.504l-108.702 282.216h-389.616l-102.379-282.216h-131.019zM269.438 410.092h315.877l-97.265 258.039c-24.603 63.503-46.658 127.963-66.114 193.227-12.112-60.535-28.9-120.039-50.213-177.977l-102.286-273.289z" />
<glyph unicode="&#xe908;" glyph-name="biaoji" d="M118.154 93.538h-78.769v-78.769h78.769v-78.769h78.769v78.769h78.769v78.769h-78.769v78.769h-78.769v-78.769zM118.154 487.385h-78.769v-78.769h78.769v-78.769h78.769v78.769h78.769v78.769h-78.769v78.769h-78.769v-78.769zM118.154 881.231h-78.769v-78.769h78.769v-78.769h78.769v78.769h78.769v78.769h-78.769v78.769h-78.769v-78.769zM354.462 881.231h630.154v-78.769h-630.154v78.769zM354.462 487.385h630.154v-78.769h-630.154v78.769zM354.462 93.538h630.154v-78.769h-630.154v78.769z" />
<glyph unicode="&#xe909;" glyph-name="geshi" d="M0 960h1024v-1024h-1024v1024zM73.558 887.737v-879.42h878.527v879.42h-878.527zM219.429 704.375h585.143v-73.143h-585.143v73.143zM219.429 570.155h390.095v-73.143h-390.095v73.143zM219.429 435.935h585.143v-73.143h-585.143v73.143zM219.429 301.714h390.095v-73.143h-390.095v73.143z" />
<glyph unicode="&#xe90a;" glyph-name="zuoduiqi" d="M0 923.429h1024v-73.143h-1024v73.143zM0 777.143h585.143v-73.143h-585.143v73.143zM0 630.857h1024v-73.143h-1024v73.143zM0 192h585.143v-73.143h-585.143v73.143zM0 484.571h585.143v-73.143h-585.143v73.143zM0 338.286h1024v-73.143h-1024v73.143zM0 45.714h1024v-73.143h-1024v73.143z" />
<glyph unicode="&#xe90b;" glyph-name="jiachu" d="M128 960v-1024h434.317c100.634 0 180.083 20.078 235.697 60.235 64.883 48.762 97.986 124.773 97.986 228.034 0 68.84-15.89 124.773-46.345 164.93-31.779 41.591-78.124 68.84-140.359 81.748 47.669 20.078 83.421 47.328 108.579 84.616 25.159 40.157 38.4 88.919 38.4 146.286 0 77.445-25.159 139.115-74.152 185.008-52.966 48.762-127.117 73.143-221.131 73.143h-432.993zM282.924 822.319h239.669c63.559 0 108.579-11.473 137.71-34.42 26.483-21.513 41.048-57.367 41.048-106.129 0-53.064-14.566-91.787-41.048-116.168-27.807-22.947-74.152-35.854-140.359-35.854h-237.021v292.571zM282.924 392.067h260.855c68.855 0 119.172-12.908 150.952-38.723 30.455-25.815 46.345-67.406 46.345-126.207 0-57.367-21.186-97.524-63.559-123.339-33.103-20.078-79.448-30.118-137.71-30.118h-256.883v318.387z" />
<glyph unicode="&#xe90c;" glyph-name="paixu" horiz-adv-x="878" d="M219.429 176.605v51.966h-219.429v-73.143h153.574v-36.571h-80.431v-73.143h80.431v-36.571h-153.574v-73.143h219.429v240.605zM219.035 521.143h0.393v73.143h-219.429v-73.143h124.089l-123.040-146.286h-1.049v-73.143h219.429v73.143h-123.34l122.946 146.286zM146.286 923.429v36.571h-146.286v-73.143h73.143v-219.429h73.143v256zM292.571 886.857h585.143v-73.143h-585.143v73.143zM292.571 521.143h585.143v-73.143h-585.143v73.143zM292.571 155.429h585.143v-73.143h-585.143v73.143z" />
<glyph unicode="&#xe90d;" glyph-name="shangxiaduiqi" d="M131.848 246.857h-129.768l182.705-201.143 182.92 201.143h-131.723v402.286h131.723l-182.92 201.143-182.705-201.143h129.768v-402.286zM1024 850.286h-585.143v-73.143h585.143v73.143zM1024 704h-585.143v-73.143h585.143v73.143zM1024 557.714h-585.143v-73.143h585.143v73.143zM877.714 118.857h-438.857v-73.143h438.857v73.143zM1024 411.429h-585.143v-73.143h585.143v73.143zM950.857 265.143h-512v-73.143h512v73.143z" />
<glyph unicode="&#xe90e;" glyph-name="shuazi" d="M274.465 626.058c1.917 1.899 66.3 81.767 66.3 81.767s52.787 70.851 139.577-49.298c121.282-97.625 174.089 20.725 174.089 20.725l90.996 195.218c65.165 76.484 235.215 29.474 235.215 29.474s35.481-141.178-31.057-212.86l-180.766-99.313c0 0-125.214-86.097-35.521-177.534 0 0 88.112-45.185 12.129-113.445 0 0-69.738-67.3-71.080-68.645l-399.882 393.913zM247.576 591.929l396.779-376.592-249.24-239.693-14.305 19.853 160.042 201.213-177.17-187.054-14.282 11.35 125.724 144.548-145.738-130.39-17.128 17.005c0 0 168.578 181.399 180.017 184.247l-191.456-167.241-8.574 14.159 91.45 104.871-105.735-93.521-11.417 17.005 91.43 127.535-105.735-119.030 31.432 68.013-45.714-51.008-14.285 14.198 154.293 198.396-165.871-187.995-8.438 12.261 82.876 130.37-100.004-119.030-11.439 8.462 114.288 155.931-128.571-141.733 71.437 102.046-85.74-93.541-11.417 17.005 131.456 201.254-142.875-189.902-14.305 17.005 40.006 59.511-54.289-45.352-14.285 14.167 94.295 90.724-114.286-79.372 145.718 170.060-151.449-161.558-19.993 22.682 108.58 110.537-125.728-102.056-17.82 30.057 247.462 220.603z" />
<glyph unicode="&#xe90f;" glyph-name="xiahuaxian" d="M777.84 960h133.126v-495.903c0-193.232-179.795-349.872-401.64-349.872s-401.647 156.64-401.647 349.872v495.903h134.223v-495.903c0-48.744 49.342-119.929 90.917-156.147 46.284-40.318 109.001-62.564 176.506-62.564 67.499 0 130.217 22.245 176.5 62.564 41.577 36.217 92.015 107.403 92.015 156.147v495.903zM40.661 29.397h938.235v-93.397h-938.235v93.397z" />
<glyph unicode="&#xe910;" glyph-name="xieti" d="M512.473 21.333l134.4 853.333h163.794v85.333h-448v-85.333h149.806l-134.4-853.333h-164.74v-85.333h448v85.333z" />
<glyph unicode="&#xe911;" glyph-name="yduiq" d="M363.679 536.777v166.241l288.732-257.821-288.732-257.821v168.723h-363.679v180.679h363.679zM1024 850.286h-585.143v-73.143h585.143v73.143zM1024 704h-292.571v-73.143h292.571v73.143zM1024 557.714h-292.571v-73.143h292.571v73.143zM1024 118.857h-585.143v-73.143h585.143v73.143zM1024 411.429h-292.571v-73.143h292.571v73.143zM1024 265.143h-292.571v-73.143h292.571v73.143z" />
<glyph unicode="&#xe912;" glyph-name="zdq" d="M660.321 536.777v166.241l-288.732-257.821 288.732-257.821v168.723h363.679v180.679h-363.679zM0 850.286h585.143v-73.143h-585.143v73.143zM0 704h292.571v-73.143h-292.571v73.143zM0 557.714h292.571v-73.143h-292.571v73.143zM0 118.857h585.143v-73.143h-585.143v73.143zM0 411.429h292.571v-73.143h-292.571v73.143zM0 265.143h292.571v-73.143h-292.571v73.143z" />
<glyph unicode="&#xe913;" glyph-name="chexiao" horiz-adv-x="1593" d="M161.386 640.447c-13.057-8.413-20.336-24.12-17.93-38.43l21.945-546.066c3.264-18.778 23.6-30.863 44.748-27.096l601.446 183.527c11.402 2.328 21.145 8.319 27.671 16.539 4.063 3.807 6.529 8.221 7.326 13.472 4.92 15.062-1.561 29.415-16.274 37.649l-190.176 110.654c281.219 465.529 707.909 184.17 807.891-152.711 28.375 810.787-882.707 758.175-1055.858 296.365l-186.912 108.287c-13.057 7.482-30.082 6.743-43.889-2.186z" />
<glyph unicode="&#xe914;" glyph-name="cx" horiz-adv-x="1593" d="M1431.531 640.447c13.057-8.413 20.336-24.12 17.93-38.43l-21.945-546.066c-3.264-18.778-23.6-30.863-44.748-27.096l-601.446 183.527c-11.402 2.328-21.145 8.319-27.671 16.539-4.063 3.807-6.529 8.221-7.326 13.472-4.92 15.062 1.561 29.415 16.274 37.649l190.176 110.654c-281.219 465.529-707.909 184.17-807.891-152.711-28.375 810.787 882.707 758.175 1055.858 296.365l186.912 108.287c13.057 7.482 30.082 6.743 43.889-2.186z" />
<glyph unicode="&#xe916;" glyph-name="align-bottom" d="M64 192h896v-64h-896v64zM64 64h896v-64h-896v64z" />
<glyph unicode="&#xe917;" glyph-name="align-top" d="M64 896h896v-64h-896v64zM64 768h896v-64h-896v64z" />
<glyph unicode="&#xe918;" glyph-name="align-middle" d="M64 576h896v-64h-896v64zM64 448h896v-64h-896v64z" />
</font>
</defs>
</svg>
