<?xml version="1.0" encoding="UTF-8"?>
<svg width="16px" height="16px" viewBox="0 0 16 16" version="1.1" xmlns="http://www.w3.org/2000/svg" xmlns:xlink="http://www.w3.org/1999/xlink">
    <!-- Generator: Sketch 43.1 (39012) - http://www.bohemiancoding.com/sketch -->
    <title>重新发送 (1)</title>
    <desc>Created with Sketch.</desc>
    <defs></defs>
    <g id="消息2-copy" stroke="none" stroke-width="1" fill="none" fill-rule="evenodd">
        <g id="消息-聊天2" transform="translate(-951.000000, -301.000000)" fill-rule="nonzero" fill="#F22525">
            <g id="POP_LAYER">
                <g id="POP_UP" transform="translate(203.000000, 33.000000)">
                    <g id="Group-5" transform="translate(265.000000, 57.000000)">
                        <g id="Group-14" transform="translate(476.000000, 175.000000)">
                            <g id="重新发送-(1)" transform="translate(7.000000, 36.000000)">
                                <path d="M8,0 C3.6,0 0,3.6 0,8 C0,12.4 3.6,16 8,16 C12.4,16 16,12.4 16,8 C16,3.6 12.4,0 8,0 Z M8.48128708,3.99433413 C8.54393326,4.01713547 8.58377808,4.10258299 8.5381754,4.22787534 L7.46674235,6.39193225 C7.44394101,6.45457843 7.35849349,6.49442325 7.29584732,6.47162191 C7.23320114,6.44882057 7.17055498,6.42601923 7.13071014,6.3405717 L6.71521834,5.33800284 C5.77529565,5.77629599 5.15988946,6.68742941 5.04565268,7.78097359 C4.93694368,9.44409118 6.14403441,10.8057237 7.807152,10.9144327 C9.4702696,11.0231417 10.8547034,9.75340479 10.9406111,8.15293336 C11.0320465,7.12203537 10.4912624,6.07386382 9.68261997,5.56670649 C9.51748279,5.43565628 9.46059448,5.20211507 9.55179984,4.95153038 C9.64300522,4.70094568 9.98479529,4.54156636 10.23538,4.63277173 L10.3606723,4.67837441 C11.4369429,5.4248308 12.1371064,6.81479243 12.0341553,8.26717015 C11.8683279,10.4770598 9.96545106,12.1966056 7.75556139,12.0307782 C5.54567171,11.8649508 3.82612594,9.962074 3.99195334,7.75218433 C4.11770584,6.23716042 5.01801377,4.93310646 6.36237271,4.35823533 L6.00952707,3.3784678 C5.96968224,3.29302028 5.99248358,3.23037411 6.0779311,3.19052928 C6.0779311,3.19052928 6.10073245,3.1278831 6.16337863,3.15068444 C6.16337863,3.15068444 6.24882615,3.11083961 6.31147232,3.13364095 L8.48128708,3.99433413 Z" id="Shape"></path>
                            </g>
                        </g>
                    </g>
                </g>
            </g>
        </g>
    </g>
</svg>