<?xml version="1.0" encoding="UTF-8"?>
<svg width="3px" height="10px" viewBox="0 0 3 10" version="1.1" xmlns="http://www.w3.org/2000/svg" xmlns:xlink="http://www.w3.org/1999/xlink">
    <!-- Generator: Sketch 43.1 (39012) - http://www.bohemiancoding.com/sketch -->
    <title>感叹号</title>
    <desc>Created with Sketch.</desc>
    <defs></defs>
    <g id="消息2-copy" stroke="none" stroke-width="1" fill="none" fill-rule="evenodd">
        <g id="消息-聊天2" transform="translate(-295.000000, -178.000000)" fill-rule="nonzero" fill="#F22525">
            <g id="POP_LAYER">
                <g id="POP_UP" transform="translate(203.000000, 33.000000)">
                    <g id="Group-7" transform="translate(40.000000, 59.000000)">
                        <g id="Group-14" transform="translate(0.000000, 54.000000)">
                            <g id="感叹号" transform="translate(52.000000, 32.000000)">
                                <path d="M1.10833576,9.99928571 C0.647569141,9.99928571 0.274352256,9.6230137 0.274352256,9.15833659 C0.274352256,8.69380626 0.647569141,8.31753425 1.10833576,8.31753425 C1.56913149,8.31753425 1.94234837,8.69380626 1.94234837,9.15833659 C1.94234837,9.6230137 1.56913149,9.99928571 1.10833576,9.99928571 Z M1.10833576,7.2511546 C0.802979136,7.2511546 0.555206211,6.7519863 0.555206211,6.13564579 L0.00202814168,1.11608611 C0.00202814168,0.499774951 0.497098496,0.000626223092 1.10833576,0.000626223092 C1.71959243,0.000626223092 2.21464338,0.499765166 2.21464338,1.11608611 L1.66136827,6.13564579 C1.66136827,6.7519863 1.41367297,7.2511546 1.10833576,7.2511546 Z" id="Shape"></path>
                            </g>
                        </g>
                    </g>
                </g>
            </g>
        </g>
    </g>
</svg>